<svg width="38" height="38" viewBox="0 0 38 38" fill="none" xmlns="http://www.w3.org/2000/svg">
<rect width="38" height="38" rx="8" fill="#FF6E30"/>
<path fill-rule="evenodd" clip-rule="evenodd" d="M19.9645 12.4359C19.632 12.4359 19.3089 12.4769 19 12.5541C19.1988 10.7606 19.9148 9.12397 20.9963 7.79491C25.2971 8.30463 28.6332 11.9645 28.6332 16.4029V22.7294C28.4605 22.7391 28.2864 22.744 28.1112 22.744C24.6706 22.744 21.6709 20.8483 20.1028 18.0423H23.9315V16.4029C23.9315 14.212 22.1554 12.4359 19.9645 12.4359Z" fill="white"/>
<path fill-rule="evenodd" clip-rule="evenodd" d="M9.25635 16.9507C9.25635 11.625 13.5737 7.30765 18.8994 7.30765C21.5623 7.30765 23.973 8.38698 25.7181 10.132C24.1094 8.52339 21.9351 7.48047 19.519 7.32727C17.8939 9.12579 16.9043 11.5095 16.9043 14.1243C16.9043 14.3194 16.9098 14.5132 16.9207 14.7055C16.2989 15.2539 15.9067 16.0565 15.9067 16.9507V17.6157H21.8921L17.5213 17.6158C18.9444 21.4968 22.6719 24.2662 27.0462 24.2662C27.5545 24.2662 28.0542 24.2288 28.5425 24.1566V28.2564H21.8921V24.2661H15.9067V28.2564H9.25635V20.9409V16.9507Z" fill="white"/>
</svg>
